<?xml version="1.0" standalone="no"?>
<!DOCTYPE svg PUBLIC "-//W3C//DTD SVG 20010904//EN"
 "http://www.w3.org/TR/2001/REC-SVG-20010904/DTD/svg10.dtd">
<svg version="1.0" xmlns="http://www.w3.org/2000/svg"
 width="1920.000000pt" height="1920.000000pt" viewBox="0 0 1920.000000 1920.000000"
 preserveAspectRatio="xMidYMid meet">
<metadata>
Created by potrace 1.14, written by Peter Selinger 2001-2017
</metadata>
<g transform="translate(0.000000,1920.000000) scale(0.100000,-0.100000)"
fill="#000000" stroke="none">
<path d="M10525 18269 c4 -8 28 -42 52 -76 23 -34 43 -66 43 -72 0 -6 4 -11 8
-11 5 0 16 -16 25 -35 9 -19 22 -35 29 -35 6 0 9 -3 5 -6 -3 -3 10 -30 29 -59
19 -30 34 -57 34 -60 0 -3 9 -15 20 -27 11 -12 20 -28 20 -35 0 -7 5 -13 10
-13 6 0 10 -6 10 -14 0 -8 7 -22 16 -30 8 -9 13 -16 9 -16 -3 0 2 -12 13 -27
24 -34 49 -78 152 -268 18 -33 41 -75 52 -92 11 -18 16 -33 11 -33 -4 0 -3 -4
3 -8 6 -4 28 -43 50 -87 21 -44 42 -81 47 -83 4 -2 7 -7 7 -12 0 -4 28 -65 62
-136 34 -71 63 -131 63 -134 1 -3 21 -45 44 -95 24 -49 44 -94 45 -100 2 -5
17 -40 34 -78 18 -37 32 -70 32 -72 0 -3 9 -24 19 -48 55 -123 147 -355 243
-617 12 -30 24 -64 29 -75 13 -34 51 -147 53 -159 1 -6 4 -15 7 -21 8 -13 43
-117 45 -130 0 -5 6 -22 12 -36 6 -15 16 -46 22 -70 7 -24 15 -48 18 -54 4 -5
7 -15 8 -21 2 -12 42 -148 52 -174 3 -8 6 -20 8 -27 3 -15 24 -83 31 -103 3
-8 7 -21 9 -29 1 -8 6 -26 10 -40 4 -14 8 -29 9 -33 2 -5 3 -9 5 -10 1 -2 3
-10 5 -18 19 -72 22 -90 17 -94 -3 -4 -1 -6 5 -6 5 0 10 -6 11 -12 1 -15 3
-25 21 -88 7 -25 15 -53 17 -62 9 -40 13 -57 39 -158 15 -58 28 -112 30 -120
2 -8 9 -37 15 -65 6 -27 14 -61 16 -75 3 -13 9 -29 15 -36 5 -6 7 -13 4 -16
-3 -2 7 -56 21 -119 14 -63 27 -125 29 -139 2 -14 4 -25 5 -25 2 0 6 -21 15
-65 8 -43 23 -114 29 -140 3 -14 7 -37 8 -52 1 -16 5 -28 8 -28 3 0 5 -10 6
-22 0 -22 6 -58 20 -123 4 -16 8 -41 9 -55 2 -14 4 -25 5 -25 1 0 3 -13 5 -30
1 -16 3 -30 5 -30 1 0 3 -13 6 -30 2 -16 13 -86 25 -155 11 -69 22 -141 24
-160 2 -19 4 -35 5 -35 1 0 3 -9 4 -20 4 -26 16 -113 22 -150 7 -50 16 -115
28 -230 3 -27 8 -66 12 -86 7 -46 15 -125 17 -166 1 -18 4 -33 7 -33 3 0 6
-21 7 -48 1 -26 4 -69 7 -97 7 -67 17 -171 21 -220 12 -133 19 -223 19 -242 1
-13 6 -23 11 -23 6 0 3 -5 -5 -10 -8 -5 -10 -10 -4 -10 6 0 11 -12 11 -27 1
-41 10 -113 28 -228 2 -11 6 -40 10 -65 3 -25 8 -52 11 -59 3 -8 7 -35 10 -60
3 -25 10 -53 15 -63 5 -10 8 -18 5 -18 -2 0 1 -19 6 -42 5 -24 12 -52 14 -63
2 -11 6 -29 8 -40 5 -21 48 -177 72 -260 8 -27 16 -54 17 -60 27 -96 104 -303
155 -415 16 -36 35 -82 43 -102 7 -21 17 -38 22 -38 4 0 5 -4 2 -10 -3 -5 -1
-10 4 -10 6 0 10 -3 9 -7 -2 -9 66 -145 111 -221 17 -29 27 -52 23 -52 -4 0
-2 -4 4 -8 5 -4 21 -25 34 -47 25 -41 153 -234 195 -293 35 -49 90 -119 152
-192 7 -8 30 -35 50 -60 80 -94 345 -354 446 -435 21 -16 48 -38 60 -48 38
-32 108 -84 243 -182 52 -38 191 -126 207 -131 9 -4 17 -10 17 -15 0 -5 4 -9
10 -9 5 0 47 -23 94 -50 47 -28 89 -50 95 -50 6 0 11 -4 11 -9 0 -5 12 -12 27
-16 15 -3 30 -10 33 -13 10 -13 309 -155 328 -155 6 0 12 -4 12 -9 0 -4 6 -8
14 -8 7 0 35 -10 62 -22 27 -12 52 -23 57 -24 4 -1 9 -3 12 -4 3 -1 8 -3 13
-5 4 -1 20 -7 35 -13 16 -7 33 -12 38 -12 5 0 9 -5 9 -10 0 -6 3 -9 8 -8 8 3
358 -109 384 -123 10 -5 26 -9 35 -9 10 0 38 -7 63 -16 25 -9 54 -18 65 -20
82 -16 125 -28 125 -36 0 -5 4 -7 9 -3 6 3 54 -5 108 -19 82 -20 144 -33 198
-42 6 -1 12 -3 15 -4 8 -3 42 -10 70 -14 14 -2 52 -9 85 -15 59 -11 102 -18
160 -26 17 -2 45 -6 63 -9 18 -3 67 -10 110 -16 43 -6 96 -13 117 -16 22 -3
67 -7 100 -9 33 -2 60 -5 60 -6 0 -3 163 -17 285 -24 36 -3 101 -7 145 -10 44
-3 86 -6 93 -5 20 0 27 0 274 -4 131 -3 240 -1 242 3 3 4 7 18 10 32 3 13 8
35 11 49 3 14 8 39 11 55 3 17 9 48 14 70 5 22 11 54 14 70 3 17 8 41 11 55 3
14 8 40 11 59 3 18 8 43 10 55 5 26 13 72 19 111 2 17 7 49 10 73 l7 43 -136
-3 c-75 -2 -136 1 -136 5 0 5 -5 5 -12 1 -6 -4 -41 -6 -77 -5 -36 2 -106 3
-154 4 -49 0 -91 5 -94 10 -3 5 -9 4 -13 -3 -6 -9 -13 -9 -29 -1 -15 8 -21 9
-21 1 0 -6 -5 -8 -11 -5 -6 4 -47 9 -92 11 -45 2 -111 6 -147 9 -152 14 -177
16 -205 20 -16 3 -57 7 -90 10 -109 10 -130 13 -130 15 0 1 -13 4 -30 6 -71 7
-122 14 -145 19 -24 5 -57 11 -125 21 -16 2 -41 7 -55 9 -14 3 -36 7 -50 10
-23 4 -38 7 -100 21 -14 3 -34 6 -45 8 -11 2 -31 6 -43 10 -13 5 -34 9 -45 11
-36 6 -81 15 -102 22 -33 11 -49 14 -72 16 -13 0 -23 4 -23 7 0 4 -30 13 -66
20 -36 8 -67 17 -70 22 -3 4 -14 8 -24 8 -11 0 -93 25 -182 56 -90 30 -167 56
-173 58 -22 6 -71 27 -87 36 -10 6 -22 10 -28 10 -5 0 -35 12 -67 26 -32 14
-74 32 -93 41 -19 9 -53 24 -74 34 -22 11 -45 19 -52 19 -7 0 -14 3 -16 8 -4
9 -134 75 -144 72 -4 -1 -10 3 -13 8 -3 5 -24 19 -46 31 -63 34 -127 71 -167
97 -21 13 -41 24 -44 23 -4 0 -10 3 -13 8 -3 5 -35 29 -71 53 -252 169 -614
502 -732 676 -13 18 -26 34 -30 34 -5 0 -8 6 -8 13 0 7 -9 18 -20 25 -11 7
-20 17 -20 22 0 5 -15 30 -34 55 -88 114 -250 400 -311 547 -15 35 -33 77 -40
93 -17 36 -56 136 -60 150 -1 6 -7 23 -13 38 -7 15 -15 40 -18 55 -4 15 -11
32 -16 39 -5 7 -7 17 -3 23 3 5 2 10 -3 10 -5 0 -9 6 -9 13 -1 12 -30 120 -41
147 -3 8 -6 20 -7 25 -1 6 -3 12 -4 15 -1 3 -5 16 -8 30 -7 38 -11 55 -13 55
-1 0 -3 11 -5 25 -2 14 -9 48 -15 75 -10 46 -16 76 -35 189 -4 21 -9 48 -11
60 -10 47 -16 104 -18 148 0 27 -4 48 -7 48 -3 0 -6 21 -8 48 -1 26 -4 63 -6
82 -5 46 -16 174 -20 230 -2 25 -6 61 -9 80 -2 19 -8 69 -12 110 -11 122 -13
143 -19 185 -8 55 -17 144 -18 183 0 17 -4 32 -7 32 -4 0 -7 23 -6 50 0 28 -1
50 -4 50 -4 0 -6 10 -7 23 0 12 -3 40 -6 62 -7 39 -13 85 -22 155 -7 54 -23
157 -31 200 -3 14 -7 41 -9 60 -2 19 -7 51 -10 70 -4 19 -8 49 -10 65 -3 17
-9 55 -15 85 -6 30 -13 64 -14 75 -21 139 -24 153 -29 163 -3 4 -8 32 -12 62
-4 30 -9 59 -12 63 -3 5 -6 21 -8 35 -2 15 -6 39 -9 55 -3 15 -8 38 -11 52 -3
14 -7 36 -10 50 -3 14 -7 35 -9 48 -2 12 -9 42 -16 67 -6 25 -13 56 -15 70 -2
14 -6 34 -8 45 -15 59 -29 123 -33 145 -3 14 -7 33 -10 42 -3 9 -7 26 -9 37
-3 12 -7 29 -9 39 -3 9 -12 49 -21 87 -9 39 -19 77 -21 85 -2 8 -11 47 -20 85
-9 39 -19 72 -23 75 -3 3 -7 16 -9 30 -3 31 -8 51 -15 70 -3 8 -9 29 -13 45
-8 34 -10 42 -14 53 -1 4 -2 11 -1 16 1 4 -2 13 -7 20 -5 6 -13 29 -17 51 -11
53 -11 53 -29 103 -8 23 -15 43 -15 45 1 1 -5 22 -12 47 -7 25 -13 48 -15 53
-1 4 -3 10 -4 15 -1 4 -3 12 -4 17 -1 6 -5 17 -8 25 -4 8 -39 119 -79 245 -41
127 -78 233 -84 237 -5 4 -7 8 -3 8 4 0 -4 30 -18 68 -13 37 -26 74 -28 82 -2
8 -11 33 -19 55 -52 136 -80 211 -81 220 -2 6 -10 27 -19 49 -9 21 -17 44 -17
50 0 7 -4 16 -8 22 -5 5 -18 34 -30 64 -12 30 -27 69 -33 85 -7 17 -13 32 -13
35 -4 15 -110 262 -157 365 -13 28 -23 52 -24 55 0 3 -13 31 -28 64 -15 32
-27 61 -27 65 0 4 -5 12 -12 19 -6 6 -13 18 -14 25 -3 20 -197 412 -206 415
-5 2 -6 8 -2 13 3 5 0 9 -7 9 -7 0 -9 3 -6 7 4 3 3 11 -2 17 -5 6 -29 49 -53
96 -51 96 -88 161 -129 232 -16 27 -29 51 -29 53 0 2 -14 26 -31 54 -33 52
-39 56 -101 65 -21 3 -59 11 -85 17 -27 5 -66 12 -88 15 -22 3 -60 9 -85 14
-25 5 -65 12 -90 16 -25 3 -52 8 -60 9 -16 3 -74 11 -155 20 -27 4 -61 8 -75
11 -14 2 -56 6 -95 10 -38 3 -74 9 -79 12 -5 3 -6 -1 -1 -9z"/>
<path d="M5087 17062 c-218 -131 -331 -203 -335 -214 -2 -4 -8 -8 -12 -8 -8 0
-100 -60 -135 -87 -5 -5 -22 -16 -37 -26 -30 -19 -37 -37 -15 -37 8 0 42 -12
78 -26 62 -25 76 -31 169 -71 25 -11 81 -35 125 -54 44 -18 83 -38 86 -42 3
-5 9 -8 13 -8 3 1 8 0 11 0 3 -1 8 -2 13 -3 17 -5 88 -42 93 -49 3 -5 9 -8 13
-7 7 2 337 -160 346 -169 3 -4 39 -24 80 -45 41 -22 134 -73 205 -114 72 -41
146 -84 165 -95 19 -10 37 -22 40 -26 3 -3 19 -13 35 -21 17 -8 39 -23 49 -32
10 -10 23 -15 28 -12 4 3 8 1 8 -3 0 -5 15 -17 33 -28 17 -10 72 -45 121 -77
48 -32 92 -58 96 -58 5 0 10 -3 12 -7 4 -9 123 -93 132 -93 3 0 14 -7 24 -16
37 -33 77 -64 84 -64 8 0 36 -21 63 -47 8 -7 16 -13 19 -13 16 0 549 -421 652
-515 11 -10 113 -99 150 -132 92 -79 262 -241 439 -418 202 -203 277 -281 395
-414 30 -34 69 -76 85 -94 17 -17 55 -61 85 -97 30 -36 57 -67 61 -70 3 -3 36
-43 75 -90 38 -47 75 -91 81 -98 7 -7 13 -18 13 -23 0 -6 5 -7 10 -4 6 3 10 1
10 -6 0 -6 19 -34 43 -62 75 -91 259 -333 307 -402 18 -27 36 -52 40 -55 3 -3
37 -50 76 -105 71 -102 76 -109 141 -205 21 -30 41 -56 45 -58 5 -2 8 -8 8
-13 0 -5 24 -44 53 -87 103 -151 324 -511 437 -712 29 -52 61 -107 71 -121 10
-14 16 -28 13 -31 -2 -3 2 -11 11 -18 8 -7 15 -16 15 -20 0 -4 29 -60 65 -125
36 -64 65 -123 65 -130 0 -8 4 -15 8 -17 5 -1 49 -84 98 -183 49 -99 92 -181
97 -183 4 -2 7 -8 7 -14 0 -5 24 -60 54 -121 29 -62 53 -114 52 -117 0 -3 9
-20 22 -37 13 -18 21 -33 18 -33 -3 0 11 -33 31 -72 48 -98 155 -323 178 -375
10 -24 22 -43 27 -43 4 0 5 -7 2 -15 -4 -8 -1 -15 5 -15 6 0 11 -4 11 -9 0 -4
21 -53 47 -107 26 -54 46 -102 45 -106 -1 -5 2 -8 8 -8 6 0 9 -3 8 -7 -1 -5
17 -48 41 -98 24 -49 64 -133 88 -185 24 -52 54 -115 66 -140 12 -25 21 -48
19 -52 -1 -5 2 -8 8 -8 5 0 10 -4 10 -10 0 -9 22 -57 135 -295 91 -192 127
-269 154 -328 16 -34 60 -127 98 -207 39 -80 73 -156 77 -168 4 -12 11 -22 15
-22 4 0 8 -6 8 -12 0 -7 35 -83 77 -168 42 -86 76 -161 76 -167 0 -6 3 -13 8
-15 8 -3 72 -129 72 -141 0 -4 12 -26 27 -50 14 -23 26 -44 26 -47 -1 -5 36
-79 144 -290 26 -52 51 -97 56 -98 4 -2 5 -7 2 -12 -3 -4 2 -13 10 -20 8 -7
15 -18 15 -25 0 -7 9 -24 20 -37 10 -14 17 -28 14 -30 -2 -3 2 -11 11 -18 8
-7 15 -16 15 -20 0 -10 165 -296 219 -380 23 -36 47 -77 53 -92 7 -16 16 -28
20 -28 4 0 17 -17 28 -38 20 -36 96 -149 155 -227 17 -22 33 -44 37 -50 5 -5
24 -30 44 -55 19 -25 42 -54 51 -65 101 -128 292 -330 417 -439 147 -129 158
-138 190 -161 16 -11 33 -25 40 -30 6 -6 29 -24 51 -40 22 -17 46 -36 53 -43
8 -7 27 -19 43 -27 16 -9 29 -20 29 -25 0 -6 4 -10 10 -10 11 0 103 -62 108
-72 2 -5 10 -8 18 -8 8 0 14 -4 14 -10 0 -5 7 -10 15 -10 8 0 15 -4 15 -10 0
-5 4 -10 9 -10 6 0 30 -13 54 -30 25 -16 50 -30 56 -30 6 0 11 -4 11 -10 0 -5
6 -10 13 -10 8 0 22 -9 32 -20 9 -10 20 -18 24 -17 8 2 155 -85 159 -95 2 -5
8 -8 14 -8 6 0 45 -20 87 -44 42 -24 105 -59 141 -78 202 -109 245 -131 323
-171 48 -25 93 -49 99 -55 7 -6 16 -11 21 -11 7 -1 42 -18 390 -194 114 -58
207 -102 207 -99 0 3 8 -2 18 -10 21 -18 94 -53 104 -50 5 1 8 -3 8 -9 0 -5 4
-8 9 -5 5 4 11 3 13 -1 4 -11 67 -43 83 -43 7 0 15 -4 17 -8 3 -7 206 -109
226 -113 4 -1 24 -13 45 -26 20 -13 37 -20 37 -16 0 5 4 4 8 -2 6 -8 195 -106
212 -110 16 -4 86 -42 92 -50 4 -5 8 -7 8 -2 0 4 19 -5 43 -20 23 -14 43 -26
45 -25 1 1 42 -18 92 -43 49 -25 94 -45 99 -45 8 0 139 164 181 226 8 13 47
67 86 121 109 151 136 192 129 203 -3 5 -189 100 -413 211 -224 112 -408 206
-410 210 -2 4 -10 5 -18 2 -8 -3 -14 -1 -14 4 0 5 -20 17 -45 27 -25 11 -45
24 -45 29 0 6 -3 8 -6 4 -3 -3 -59 21 -124 54 -64 32 -122 59 -128 59 -6 0
-12 3 -14 8 -4 9 -80 46 -90 44 -5 -1 -8 2 -8 7 0 5 -12 12 -27 16 -15 3 -31
11 -34 16 -3 6 -12 11 -20 13 -14 2 -63 27 -186 92 -35 18 -63 31 -63 28 0 -3
-12 3 -27 13 -16 11 -50 30 -78 43 -27 14 -52 27 -55 30 -3 3 -12 6 -20 8 -8
2 -16 8 -18 13 -2 5 -10 9 -17 9 -8 0 -36 13 -64 29 -27 16 -51 27 -54 25 -2
-2 -10 2 -17 11 -7 8 -16 15 -21 15 -9 0 -311 160 -319 169 -3 3 -31 20 -63
36 -109 57 -257 144 -275 162 -7 7 -19 13 -26 13 -7 0 -22 9 -34 20 -12 11
-25 21 -29 21 -19 2 -371 249 -419 294 -6 5 -26 22 -45 37 -19 14 -49 40 -68
57 -19 17 -38 31 -43 31 -4 0 -8 7 -8 15 0 8 -4 15 -9 15 -9 0 -147 135 -219
214 -39 43 -132 158 -183 226 -73 97 -98 132 -175 251 -122 189 -119 183 -116
192 1 4 -2 7 -8 7 -5 0 -10 5 -10 10 0 6 -15 34 -33 63 -18 29 -40 66 -49 82
-50 98 -133 241 -142 247 -6 4 -7 8 -3 8 9 0 -43 101 -58 112 -5 4 -6 8 -1 8
5 0 4 6 -2 13 -17 20 -192 370 -192 383 0 7 -3 14 -7 16 -10 4 -67 120 -65
131 1 4 -2 7 -8 7 -6 0 -9 3 -8 8 1 4 -34 79 -77 167 -43 88 -79 162 -80 165
-2 8 -56 122 -135 285 -40 83 -73 156 -73 163 0 6 -3 12 -6 12 -4 0 -15 23
-26 50 -11 28 -23 50 -27 50 -4 0 -7 3 -6 8 1 8 -14 43 -90 202 -27 58 -64
137 -83 175 -18 39 -34 72 -34 75 -1 3 -23 50 -50 105 -27 55 -48 103 -47 108
1 4 -2 7 -7 7 -5 0 -12 14 -16 30 -4 17 -11 30 -17 30 -6 0 -9 3 -5 6 3 4 -8
34 -25 68 -18 33 -32 63 -33 66 0 3 -6 15 -13 26 -6 12 -8 24 -5 28 3 3 1 6
-5 6 -7 0 -12 4 -12 9 0 4 -30 71 -66 147 -36 77 -88 185 -115 242 -27 56 -49
107 -49 112 0 6 -5 10 -10 10 -6 0 -9 3 -8 8 0 4 -7 25 -17 47 -10 22 -18 43
-17 48 1 4 -2 7 -8 7 -5 0 -10 4 -10 9 0 17 -294 620 -411 841 -108 207 -213
395 -221 398 -4 2 -8 8 -8 14 0 6 -29 60 -65 120 -36 61 -65 114 -65 118 0 5
-6 15 -14 22 -8 8 -29 41 -47 74 -18 32 -37 60 -41 62 -4 2 -8 10 -8 18 0 8
-4 14 -10 14 -5 0 -10 5 -10 10 0 6 -17 37 -37 70 -21 32 -74 116 -118 186
-44 69 -88 135 -97 145 -10 11 -15 19 -10 19 4 0 3 4 -3 8 -5 4 -39 50 -74
102 -89 133 -124 183 -138 198 -7 7 -13 17 -13 21 0 4 -9 17 -20 29 -12 12
-17 22 -13 22 4 0 0 6 -9 13 -8 6 -44 53 -79 102 -35 50 -69 97 -76 105 -6 8
-64 83 -128 165 -63 83 -121 157 -128 165 -6 8 -32 40 -57 70 -25 30 -52 63
-60 73 -8 10 -23 28 -33 40 -11 12 -35 42 -55 66 -21 25 -44 52 -52 61 -8 9
-40 45 -70 80 -30 35 -62 71 -70 80 -8 9 -46 51 -85 95 -181 202 -494 520
-705 715 -68 63 -131 122 -140 130 -9 8 -47 42 -85 75 -39 33 -75 64 -81 70
-39 36 -149 129 -194 165 -18 14 -37 30 -44 35 -57 51 -268 215 -276 215 -5 0
-10 4 -10 8 0 4 -31 30 -70 57 -38 28 -70 53 -70 58 0 4 -7 7 -15 7 -8 0 -15
5 -15 10 0 6 -7 10 -15 10 -8 0 -15 4 -15 8 0 4 -13 16 -30 25 -16 10 -35 23
-42 30 -7 7 -42 33 -78 57 -36 24 -68 48 -72 54 -5 7 -8 7 -8 1 0 -7 -3 -7 -8
0 -11 15 -79 65 -89 65 -4 0 -19 10 -33 23 -14 13 -28 24 -33 25 -4 1 -17 8
-30 17 -81 57 -353 225 -365 225 -6 0 -12 4 -14 8 -4 10 -264 162 -277 162 -5
0 -11 3 -13 8 -1 4 -25 18 -53 32 -27 13 -52 27 -55 30 -11 11 -297 155 -475
239 -71 34 -138 66 -147 71 -32 18 -52 10 -181 -68z"/>
<path d="M14236 16987 c-6 -30 -9 -46 -20 -96 -2 -10 -7 -34 -10 -52 -3 -19
-8 -45 -11 -59 -3 -14 -7 -41 -10 -60 -2 -19 -6 -44 -8 -55 -3 -11 -8 -40 -11
-65 -3 -25 -8 -56 -11 -70 -2 -14 -6 -45 -9 -70 -3 -25 -8 -67 -11 -95 -12
-87 -14 -98 -21 -180 -9 -107 -12 -130 -14 -130 -1 0 -3 -29 -5 -65 -10 -172
-14 -220 -20 -229 -3 -6 -1 -11 5 -11 6 0 8 -5 4 -12 -22 -36 -24 -928 -2
-955 7 -9 7 -13 0 -13 -6 0 -9 -10 -6 -22 3 -13 7 -56 9 -97 2 -41 6 -97 9
-125 16 -153 19 -182 21 -196 1 -8 5 -42 10 -75 8 -63 13 -90 15 -90 1 0 3
-20 6 -45 9 -98 11 -111 18 -117 3 -3 6 -18 6 -33 0 -15 3 -30 7 -33 3 -4 8
-19 10 -34 8 -62 12 -81 28 -148 9 -38 18 -77 20 -85 3 -8 11 -40 19 -70 7
-30 22 -82 32 -115 10 -33 18 -62 19 -65 0 -3 9 -30 20 -60 11 -30 20 -58 21
-62 1 -5 3 -10 4 -13 1 -3 3 -8 5 -12 1 -5 5 -17 10 -28 4 -11 28 -72 53 -135
60 -152 211 -449 255 -500 9 -11 17 -23 17 -26 0 -6 80 -126 89 -134 11 -9 66
-85 62 -85 -13 0 265 -283 339 -346 74 -62 68 -57 140 -109 30 -22 60 -44 67
-50 7 -5 24 -15 38 -22 14 -6 25 -15 25 -20 0 -5 4 -7 9 -4 5 4 11 3 13 -1 4
-9 85 -56 148 -85 25 -11 47 -25 48 -29 2 -5 9 -9 16 -9 7 0 31 -9 54 -20 22
-11 48 -20 57 -20 8 0 15 -4 15 -9 0 -5 10 -11 23 -14 12 -3 63 -20 112 -37
50 -18 104 -34 120 -37 17 -3 35 -8 40 -13 6 -4 24 -10 40 -12 17 -3 64 -13
105 -22 41 -10 89 -19 105 -21 17 -2 30 -4 30 -5 0 -5 217 -30 275 -32 25 0
52 -4 61 -9 8 -4 21 -4 29 1 8 5 19 6 25 2 15 -9 95 -9 95 1 0 4 8 4 18 -1 9
-4 28 -7 42 -5 14 2 32 3 40 3 109 -2 290 9 425 25 33 5 71 9 85 10 14 2 25 4
25 5 0 1 16 4 35 6 48 4 105 12 108 15 3 2 12 4 63 12 63 11 100 17 129 23 14
3 40 8 58 10 19 3 68 11 110 20 80 16 166 30 196 33 8 1 7 13 -14 86 -6 22
-13 51 -16 64 -3 13 -18 69 -35 125 -16 56 -32 112 -35 125 -3 13 -9 32 -15
43 -5 10 -8 18 -6 18 2 0 -11 44 -28 98 -18 53 -37 96 -42 95 -5 -1 -27 -4
-48 -7 -22 -3 -50 -7 -61 -10 -12 -2 -37 -7 -55 -10 -19 -3 -45 -8 -59 -11
-51 -10 -146 -27 -170 -31 -14 -1 -36 -5 -50 -8 -14 -2 -41 -7 -60 -10 -19 -3
-44 -7 -55 -10 -11 -2 -47 -7 -80 -10 -33 -4 -74 -9 -92 -12 -17 -3 -68 -7
-111 -8 -44 -2 -86 -7 -92 -11 -9 -6 -11 -4 -5 5 6 10 4 11 -6 4 -15 -9 -267
-14 -284 -5 -5 3 -37 5 -72 6 -34 0 -65 4 -69 8 -4 4 -13 2 -21 -4 -10 -9 -13
-8 -13 0 0 7 -3 10 -7 8 -7 -4 -90 6 -153 19 -14 3 -38 7 -55 10 -16 3 -42 10
-56 15 -15 6 -33 9 -40 8 -8 -1 -25 2 -39 8 -41 18 -65 26 -72 25 -4 -1 -20 3
-35 10 -15 6 -30 12 -33 13 -6 2 -60 24 -80 32 -8 3 -18 5 -22 5 -5 -1 -8 3
-8 8 0 5 -3 9 -7 8 -11 -2 -87 35 -91 45 -2 4 -9 7 -16 7 -6 0 -23 8 -36 17
-14 10 -31 18 -39 20 -8 1 -17 6 -20 10 -3 5 -28 24 -56 43 -112 75 -273 224
-360 335 -22 28 -43 52 -47 53 -5 2 -8 10 -8 17 0 7 -4 15 -8 17 -21 8 -180
273 -197 328 -4 11 -11 20 -17 20 -5 0 -8 6 -5 14 3 8 -1 20 -9 26 -8 7 -14
16 -14 21 0 4 -5 20 -12 36 -6 15 -11 31 -10 36 1 4 -3 7 -10 7 -6 0 -8 3 -5
7 4 3 3 11 -2 17 -4 6 -27 67 -51 136 -23 69 -45 132 -48 140 -3 8 -4 19 -3
24 1 4 -3 14 -9 20 -5 7 -7 16 -3 19 3 4 1 13 -5 20 -7 7 -14 31 -18 53 -3 21
-10 46 -15 55 -4 9 -6 19 -3 22 3 3 1 14 -4 24 -5 10 -12 34 -15 53 -7 46 -16
89 -23 120 -4 14 -8 34 -10 45 -2 11 -5 31 -8 45 -2 14 -7 46 -11 71 -3 26 -8
58 -10 70 -9 43 -23 166 -30 249 -2 25 -4 45 -5 45 -1 0 -3 25 -5 55 -2 30 -7
96 -10 145 -3 50 -7 108 -8 130 -1 22 -6 46 -11 54 -6 9 -5 12 2 7 12 -7 11
41 -1 61 -4 6 -1 13 5 16 10 3 10 7 0 19 -8 10 -9 19 -3 22 10 6 9 31 -1 41
-3 4 -3 19 2 33 4 15 3 37 -1 50 -5 12 -5 22 -1 22 4 0 7 73 8 163 1 176 11
384 28 567 4 36 9 90 12 120 9 99 14 145 19 180 3 19 7 53 9 75 3 22 5 40 6
40 1 0 4 14 5 30 2 17 6 48 9 70 20 137 20 131 -13 151 -17 10 -31 22 -31 26
0 4 -6 8 -14 8 -8 0 -16 3 -18 8 -4 9 -29 26 -219 152 -85 57 -166 111 -181
121 -15 11 -31 19 -37 19 -5 0 -11 3 -13 8 -1 4 -17 15 -34 24 l-32 18 -6 -33z"/>
<path d="M1884 13739 c-39 -62 -264 -510 -264 -525 0 -8 -5 -14 -12 -14 -6 0
-8 -3 -5 -7 4 -3 2 -12 -4 -19 -9 -11 -5 -16 16 -24 15 -6 30 -8 32 -6 3 3 16
1 29 -4 14 -6 35 -12 47 -15 49 -11 163 -37 177 -40 41 -11 186 -47 195 -49 6
-1 19 -5 30 -9 11 -3 31 -8 45 -11 14 -3 41 -10 60 -16 19 -6 46 -14 60 -17
14 -2 30 -6 35 -7 6 -1 44 -13 85 -25 41 -13 80 -24 85 -25 6 -1 16 -5 23 -9
6 -5 12 -6 12 -2 0 3 16 -1 35 -9 19 -8 35 -13 35 -11 0 2 16 -3 35 -11 19 -8
35 -11 35 -8 0 4 7 0 17 -7 9 -8 18 -13 20 -11 2 2 36 -7 76 -19 39 -13 74
-23 77 -24 3 0 11 -4 18 -8 6 -5 12 -6 12 -3 0 3 17 -2 37 -10 38 -16 68 -25
91 -26 6 -1 12 -6 12 -11 0 -6 3 -7 6 -4 4 3 15 2 26 -4 11 -6 27 -12 36 -14
18 -4 207 -70 232 -81 8 -4 20 -8 25 -9 6 -2 47 -17 92 -34 45 -18 86 -32 90
-33 5 0 24 -8 43 -18 19 -10 37 -18 40 -18 12 -1 225 -87 305 -123 28 -12 55
-23 61 -24 5 -2 30 -12 54 -24 24 -11 50 -21 57 -21 7 0 13 -4 13 -9 0 -5 10
-11 23 -15 12 -3 67 -27 122 -53 55 -26 102 -47 105 -48 18 -5 146 -71 148
-77 2 -5 8 -5 14 -2 6 4 13 2 17 -3 3 -5 38 -24 76 -43 39 -18 84 -43 100 -54
17 -12 30 -19 31 -16 1 7 218 -112 222 -122 2 -4 10 -8 17 -8 7 0 48 -20 89
-45 42 -25 81 -45 86 -45 6 0 10 -4 10 -8 0 -4 22 -19 50 -33 27 -13 50 -27
50 -31 0 -5 4 -8 9 -8 12 0 248 -144 277 -169 6 -5 25 -16 41 -25 17 -8 37
-22 45 -29 7 -7 32 -24 56 -37 23 -13 42 -28 42 -32 0 -5 4 -7 9 -4 5 4 11 3
13 -2 1 -4 57 -45 123 -92 66 -46 127 -90 135 -97 45 -39 80 -64 80 -56 0 4 4
3 8 -3 4 -6 39 -35 77 -65 39 -29 76 -59 83 -66 8 -7 30 -26 50 -41 21 -15 39
-29 42 -32 3 -3 21 -18 40 -34 94 -76 164 -136 329 -285 106 -95 402 -391 501
-501 41 -46 80 -88 85 -94 6 -6 33 -38 60 -71 28 -33 59 -70 70 -82 30 -34 46
-53 89 -108 22 -27 42 -52 46 -55 3 -3 17 -21 30 -40 31 -44 39 -55 68 -85 13
-14 19 -25 15 -25 -4 0 -3 -4 2 -8 18 -12 125 -160 125 -171 0 -6 4 -11 8 -11
7 0 91 -115 176 -240 17 -25 34 -46 38 -48 5 -2 8 -10 8 -18 0 -8 5 -14 10
-14 6 0 10 -7 10 -15 0 -8 4 -15 9 -15 5 0 13 -9 16 -20 3 -11 12 -26 19 -32
19 -20 216 -319 216 -329 0 -5 5 -9 10 -9 6 0 10 -6 10 -13 0 -7 10 -24 23
-37 12 -14 21 -26 19 -27 -1 -2 13 -27 31 -56 18 -28 42 -68 53 -87 10 -19 22
-36 27 -38 4 -2 7 -10 7 -18 0 -8 3 -14 8 -14 4 0 12 -10 18 -23 6 -12 53 -96
106 -187 52 -91 116 -205 143 -255 26 -49 58 -109 71 -132 12 -24 19 -43 16
-43 -4 0 -2 -4 4 -8 7 -4 42 -70 78 -147 37 -77 71 -147 77 -155 5 -8 13 -25
19 -38 5 -12 19 -42 30 -67 11 -25 30 -66 41 -92 12 -27 33 -73 46 -103 14
-30 26 -61 26 -67 0 -7 3 -13 7 -13 3 0 12 -17 19 -37 8 -21 21 -56 31 -78 9
-22 32 -78 50 -125 18 -47 38 -98 45 -115 36 -83 156 -413 157 -432 1 -7 6
-13 11 -13 5 0 7 -6 4 -14 -3 -7 -2 -17 3 -22 4 -5 22 -52 40 -104 17 -52 50
-147 72 -210 22 -63 41 -119 43 -125 1 -5 5 -17 8 -25 8 -19 48 -132 51 -145
2 -5 6 -19 10 -30 5 -11 14 -37 22 -57 8 -21 10 -38 6 -38 -4 0 -2 -4 3 -8 8
-6 49 -107 59 -147 2 -5 6 -17 9 -25 3 -8 29 -76 58 -150 80 -209 85 -223 103
-255 9 -16 16 -35 16 -41 0 -11 55 -138 90 -207 11 -22 20 -45 20 -53 0 -8 5
-14 10 -14 6 0 10 -6 10 -13 0 -13 192 -399 209 -422 5 -5 23 -37 41 -70 38
-72 111 -196 123 -210 10 -12 51 -78 52 -85 3 -14 41 -70 48 -70 4 0 7 -7 7
-15 0 -8 5 -15 10 -15 6 0 10 -5 10 -12 0 -6 11 -26 25 -44 14 -18 25 -36 25
-39 0 -4 6 -12 13 -20 16 -16 48 -61 61 -85 12 -21 157 -222 165 -230 4 -3 42
-52 85 -110 44 -58 91 -119 105 -136 14 -17 33 -40 41 -50 35 -45 105 -130
120 -146 8 -9 31 -36 50 -59 19 -24 49 -58 67 -76 18 -18 30 -33 28 -33 -3 0
17 -23 43 -51 26 -29 61 -66 77 -84 17 -18 64 -70 105 -116 132 -146 540 -562
540 -550 0 3 9 -7 20 -24 11 -16 20 -28 20 -24 0 3 44 -38 98 -90 54 -53 143
-136 197 -186 54 -49 118 -109 142 -133 44 -44 56 -45 83 -11 12 16 347 383
380 418 44 46 44 46 -12 99 -29 28 -69 65 -88 82 -236 213 -773 751 -933 935
-19 22 -52 59 -74 81 -39 42 -105 118 -183 209 -24 28 -48 53 -54 57 -6 4 -7
8 -3 8 4 0 -4 12 -18 28 -34 37 -45 49 -91 107 -21 27 -43 55 -49 61 -5 6 -19
23 -30 38 -42 59 -100 131 -107 134 -5 2 -8 10 -8 17 0 7 -3 15 -7 17 -13 5
-73 86 -73 97 0 6 -3 11 -7 11 -5 0 -24 25 -43 55 -19 30 -38 55 -41 55 -4 0
-12 13 -19 30 -7 16 -16 30 -21 30 -5 0 -9 5 -9 11 0 6 -13 28 -30 49 -16 21
-30 40 -30 43 0 2 -22 38 -50 80 -27 42 -50 81 -50 86 0 6 -4 11 -10 11 -5 0
-10 4 -10 9 0 12 -62 114 -75 123 -5 4 -7 8 -3 8 4 0 -12 33 -36 73 -23 39
-49 87 -57 104 -7 18 -17 33 -21 33 -5 0 -7 3 -6 7 2 9 -86 189 -101 207 -5 6
-10 14 -10 18 -1 4 -17 42 -36 84 -19 42 -35 80 -35 85 0 5 -5 9 -12 9 -6 0
-9 3 -6 6 4 3 -5 31 -19 62 -26 58 -45 103 -48 112 -1 3 -6 16 -12 30 -6 14
-27 68 -48 120 -20 52 -41 104 -45 115 -20 48 -55 151 -52 158 1 4 -2 7 -6 7
-4 0 -14 21 -21 48 -8 26 -18 52 -23 59 -5 7 -7 16 -4 22 3 5 3 11 -1 13 -5 1
-19 35 -31 73 -13 39 -26 77 -29 85 -8 21 -9 21 -18 55 -4 17 -11 35 -15 40
-3 6 -17 44 -30 85 -13 41 -28 80 -33 87 -5 7 -6 17 -2 23 3 5 2 10 -3 10 -5
0 -9 6 -9 13 -1 6 -9 35 -19 62 -30 85 -56 159 -64 180 -20 51 -23 61 -24 75
0 8 -3 17 -6 20 -6 5 -40 90 -45 113 -1 6 -8 28 -16 47 -7 19 -12 38 -11 43 1
4 -2 7 -8 7 -6 0 -9 3 -9 8 1 4 0 10 -1 15 -1 4 -3 10 -5 15 -1 4 -5 16 -10
27 -4 11 -19 49 -32 85 -13 36 -28 74 -33 85 -5 11 -24 58 -42 105 -17 47 -37
88 -43 92 -5 4 -7 8 -3 8 6 0 -25 78 -82 205 -9 22 -24 56 -33 75 -27 64 -69
154 -120 260 -57 117 -52 107 -62 138 -4 12 -11 22 -16 22 -5 0 -9 8 -9 18 0
10 -4 22 -9 27 -14 15 -81 148 -81 163 0 6 -4 12 -9 12 -5 0 -14 14 -20 32 -6
17 -19 40 -28 50 -9 10 -13 18 -9 18 3 0 -4 17 -17 38 -13 20 -48 82 -77 137
-30 55 -57 102 -62 103 -4 2 -8 8 -8 14 0 6 -27 55 -60 110 -33 56 -60 105
-60 109 0 5 -4 9 -10 9 -5 0 -10 5 -10 11 0 6 -15 34 -34 62 -18 29 -51 80
-72 115 -21 35 -46 73 -54 86 -8 13 -30 49 -48 80 -18 30 -38 58 -43 62 -6 3
-13 14 -17 23 -4 9 -47 76 -97 149 -49 73 -94 140 -100 150 -14 23 -22 33 -50
68 -14 18 -25 36 -25 42 0 6 -3 12 -8 14 -8 3 -132 176 -132 184 0 3 -10 16
-22 29 -34 36 -48 53 -48 60 0 3 -17 27 -37 54 -21 27 -47 61 -58 76 -24 35
-108 141 -135 173 -11 13 -20 26 -20 29 0 3 -8 13 -18 22 -9 9 -37 42 -61 74
-24 31 -47 57 -52 57 -5 0 -9 6 -9 14 0 8 -4 16 -9 18 -4 2 -37 37 -72 78
-198 232 -506 545 -754 765 -43 39 -99 89 -124 112 -25 24 -49 43 -52 43 -4 0
-21 13 -38 29 -18 17 -50 45 -73 63 -22 18 -46 39 -53 46 -8 6 -18 12 -24 12
-6 0 -11 3 -11 8 0 6 -35 35 -125 104 -5 4 -30 24 -55 44 -25 20 -55 41 -67
47 -13 6 -23 13 -23 17 0 4 -24 23 -52 43 -29 20 -82 57 -118 83 -95 69 -369
254 -375 254 -4 0 -13 6 -20 13 -35 30 -45 37 -59 37 -8 0 -16 4 -18 8 -4 10
-216 142 -229 142 -5 0 -9 5 -9 10 0 6 -7 10 -15 10 -8 0 -15 5 -15 10 0 6 -7
10 -16 10 -9 0 -28 8 -42 18 -39 28 -273 158 -377 211 -49 25 -92 49 -93 54
-2 4 -8 5 -13 1 -5 -3 -9 0 -9 6 0 6 -4 9 -9 5 -5 -3 -13 0 -16 5 -7 11 -41
27 -59 28 -5 0 -12 4 -15 9 -6 8 -120 68 -131 68 -3 1 -21 9 -40 20 -19 11
-37 19 -40 20 -3 0 -36 16 -75 34 -38 18 -95 44 -125 58 -30 14 -77 35 -105
48 -66 31 -128 57 -140 61 -5 1 -30 11 -55 22 -25 12 -47 20 -50 20 -3 -1 -16
5 -30 12 -14 8 -27 15 -30 15 -5 2 -13 5 -95 39 -160 68 -706 268 -732 269 -7
0 -13 5 -13 10 0 6 -3 8 -6 4 -3 -3 -31 4 -62 15 -32 11 -64 21 -72 23 -8 2
-16 4 -17 5 -2 2 -6 3 -10 5 -5 1 -15 4 -23 7 -8 3 -35 11 -60 18 -25 7 -54
16 -65 21 -11 4 -60 20 -110 34 -49 15 -115 34 -145 43 -30 9 -56 19 -58 23
-2 4 -9 6 -15 3 -7 -2 -43 5 -82 17 -38 11 -81 23 -95 26 -14 2 -32 7 -40 10
-8 3 -19 7 -25 8 -5 2 -57 15 -115 30 -58 15 -112 28 -120 30 -8 2 -44 11 -80
20 -36 9 -73 19 -83 21 -10 2 -27 6 -37 9 -15 5 -25 -4 -46 -36z"/>
<path d="M920 10990 c-5 -10 -7 -19 -5 -22 2 -2 0 -20 -5 -39 -5 -19 -12 -59
-15 -89 -4 -30 -8 -57 -10 -60 -1 -3 -6 -36 -10 -75 -4 -38 -8 -72 -10 -75 -1
-3 -6 -36 -10 -75 -3 -38 -8 -83 -11 -100 -2 -16 -6 -51 -8 -76 -5 -51 -8 -48
78 -66 11 -2 47 -11 80 -19 34 -9 68 -18 76 -20 8 -1 67 -17 130 -34 63 -18
120 -33 125 -34 6 -1 30 -9 55 -16 25 -7 50 -14 55 -16 6 -1 55 -16 110 -33
55 -17 102 -31 105 -30 3 0 22 -7 43 -16 20 -8 37 -12 37 -9 0 4 6 2 13 -3 6
-6 35 -16 62 -23 28 -7 55 -16 60 -20 6 -4 25 -11 43 -15 17 -3 32 -11 32 -15
0 -5 7 -7 15 -4 8 4 21 2 28 -3 6 -5 32 -16 57 -23 25 -7 50 -16 55 -19 6 -3
19 -7 30 -8 11 -2 22 -8 23 -13 2 -6 12 -10 21 -10 10 0 40 -9 67 -19 47 -18
83 -32 94 -36 3 -1 19 -7 35 -14 17 -6 62 -24 100 -39 39 -14 73 -31 77 -37 4
-5 8 -7 8 -2 0 4 17 0 38 -9 20 -9 69 -29 107 -44 39 -15 97 -40 130 -55 33
-15 76 -35 95 -43 19 -9 37 -17 40 -17 7 -2 78 -35 203 -94 60 -28 113 -51
118 -51 5 0 9 -5 9 -10 0 -6 3 -9 8 -8 4 1 31 -10 60 -25 28 -15 52 -24 52
-20 0 5 4 3 8 -3 6 -8 256 -144 349 -188 13 -6 23 -14 23 -18 0 -5 4 -8 10 -8
5 0 48 -22 96 -50 48 -27 91 -50 95 -50 5 0 9 -4 9 -10 0 -5 6 -10 13 -10 6 0
40 -18 75 -40 34 -22 67 -40 72 -40 6 0 10 -3 10 -8 0 -4 17 -16 38 -27 46
-25 96 -58 100 -67 2 -5 8 -8 13 -8 12 0 93 -52 97 -62 2 -5 8 -8 14 -8 8 0
185 -116 233 -153 5 -4 53 -37 105 -74 52 -37 101 -73 108 -80 7 -7 17 -13 20
-13 4 0 18 -10 32 -23 14 -12 41 -33 60 -47 19 -13 37 -27 40 -30 3 -3 21 -17
40 -30 19 -13 37 -27 40 -31 3 -4 28 -24 56 -45 57 -43 139 -111 164 -135 9
-8 25 -22 37 -30 11 -8 51 -41 88 -74 38 -33 86 -76 108 -95 22 -19 63 -56 90
-82 27 -27 51 -48 54 -48 6 0 421 -416 506 -507 31 -33 57 -66 57 -73 0 -6 4
-8 10 -5 5 3 10 3 10 -2 0 -4 15 -24 33 -44 86 -98 195 -226 227 -268 14 -18
31 -40 39 -48 8 -8 55 -68 105 -133 98 -126 99 -129 193 -259 34 -47 66 -90
71 -96 18 -21 134 -197 206 -312 28 -43 52 -80 55 -83 3 -3 12 -15 19 -27 6
-13 18 -33 25 -45 6 -13 17 -30 23 -38 7 -8 57 -96 113 -195 56 -99 108 -191
116 -205 50 -86 243 -479 238 -484 -4 -3 -2 -6 4 -6 5 0 16 -18 23 -40 7 -22
18 -40 23 -40 6 0 8 -3 4 -6 -3 -4 7 -32 23 -64 16 -32 26 -60 23 -64 -4 -3
-1 -6 5 -6 7 0 12 -5 12 -10 0 -6 21 -59 46 -118 26 -59 47 -113 47 -119 0 -7
4 -13 9 -13 4 0 7 -3 6 -7 -1 -5 5 -24 14 -43 8 -19 21 -53 28 -75 7 -22 16
-44 20 -50 3 -5 13 -30 20 -55 7 -25 17 -49 20 -55 7 -9 41 -106 46 -130 1 -5
14 -38 27 -73 14 -34 23 -62 20 -62 -3 0 -1 -6 5 -13 6 -7 13 -24 16 -39 2
-14 9 -36 16 -47 6 -12 8 -21 5 -21 -3 0 1 -13 10 -30 8 -16 15 -33 15 -37 -1
-13 31 -116 41 -135 5 -10 9 -24 9 -32 0 -8 11 -46 24 -85 13 -39 22 -71 19
-71 -3 0 -1 -6 4 -12 6 -7 9 -21 8 -30 -2 -10 2 -18 8 -18 5 0 8 -3 4 -6 -3
-4 0 -22 8 -40 8 -19 12 -34 10 -34 -3 0 0 -11 5 -25 10 -26 19 -63 25 -101 2
-12 8 -31 14 -43 7 -11 10 -21 7 -21 -3 0 0 -15 5 -32 6 -18 12 -44 15 -58 3
-14 8 -34 11 -45 4 -11 8 -26 9 -34 2 -7 8 -35 14 -61 6 -26 13 -56 15 -66 2
-11 4 -19 5 -19 1 0 3 -9 5 -20 1 -11 6 -33 9 -50 4 -16 10 -47 13 -68 3 -20
8 -37 12 -37 3 0 7 -10 8 -22 2 -29 11 -93 13 -93 1 0 4 -13 6 -30 3 -16 7
-37 11 -45 3 -8 7 -28 8 -45 2 -16 7 -46 11 -65 4 -19 7 -43 8 -52 0 -10 4
-18 9 -18 4 0 6 -4 3 -8 -3 -5 2 -46 10 -93 23 -128 25 -137 28 -166 2 -16 4
-28 5 -28 1 0 4 -20 6 -45 2 -25 7 -56 10 -70 8 -38 18 -113 17 -130 0 -8 2
-22 5 -30 6 -17 12 -73 17 -146 1 -28 5 -55 8 -60 3 -5 9 -45 12 -89 4 -44 9
-98 12 -120 3 -22 7 -60 8 -85 2 -25 5 -45 6 -45 1 0 3 -22 5 -50 10 -148 13
-174 19 -183 3 -6 2 -13 -4 -17 -6 -4 -7 -11 -4 -17 6 -10 12 -64 17 -155 1
-24 6 -43 12 -44 5 -1 21 -2 35 -4 141 -14 272 -22 485 -30 l150 -5 -2 48 c-1
26 -2 47 -3 47 0 0 -3 34 -5 75 -2 41 -7 111 -10 155 -4 44 -7 106 -8 137 -1
32 -4 58 -7 58 -3 0 -5 12 -6 28 -1 36 -13 166 -20 217 -3 22 -7 60 -9 85 -1
25 -4 45 -5 45 -1 0 -3 16 -5 35 -2 19 -7 58 -10 85 -4 28 -8 64 -10 82 -2 17
-7 51 -11 75 -3 24 -7 54 -9 68 -1 14 -5 43 -9 65 -4 22 -9 55 -11 73 -2 18
-7 52 -11 75 -4 23 -8 51 -10 62 -1 11 -3 21 -4 23 -2 1 -3 10 -4 20 -4 32
-18 127 -23 147 -2 11 -6 34 -9 50 -2 17 -6 37 -9 44 -3 8 -8 33 -11 55 -5 45
-11 80 -14 84 -3 3 -5 10 -15 67 -4 28 -9 55 -11 60 -5 21 -14 66 -19 93 -3
15 -8 38 -12 52 -3 14 -7 32 -9 40 -6 32 -17 86 -20 95 -2 6 -5 19 -7 30 -3
11 -15 61 -27 110 -12 50 -23 97 -25 105 -3 13 -62 240 -70 265 -1 6 -6 25
-10 43 -4 17 -11 32 -16 32 -5 0 -6 6 -3 13 2 7 -2 32 -11 56 -8 24 -12 47 -9
52 3 5 0 9 -5 9 -6 0 -10 3 -9 8 2 8 -14 64 -43 154 -11 35 -22 70 -24 78 -2
8 -4 15 -5 15 -1 0 -3 7 -5 15 -6 32 -138 414 -162 470 -3 8 -8 24 -10 34 -2
11 -7 24 -12 30 -5 6 -18 39 -29 72 -12 34 -28 77 -36 95 -8 19 -39 95 -70
169 -30 74 -65 158 -77 185 -13 28 -24 52 -24 55 -3 11 -25 59 -69 153 -25 53
-46 102 -46 107 0 6 -4 10 -10 10 -5 0 -10 5 -10 12 0 17 -141 302 -152 306
-4 2 -8 12 -8 22 0 10 -4 21 -9 24 -4 3 -21 31 -37 63 -16 32 -59 111 -96 176
-38 65 -68 121 -68 123 0 1 -12 20 -26 41 -14 21 -30 47 -35 58 -5 11 -29 52
-54 90 -25 39 -51 81 -58 95 -6 14 -17 29 -24 33 -7 4 -13 12 -13 18 0 10
-235 366 -256 386 -7 7 -23 29 -35 50 -13 21 -29 45 -36 53 -7 8 -54 71 -105
140 -51 69 -95 127 -98 130 -3 3 -49 59 -102 125 -52 66 -105 131 -117 145
-12 14 -32 37 -44 51 -12 14 -43 50 -69 80 -26 30 -56 65 -68 79 -145 170
-583 609 -789 790 -34 30 -73 64 -85 75 -48 43 -115 101 -137 119 -13 10 -49
40 -79 65 -30 25 -77 64 -105 86 -27 22 -55 44 -61 50 -6 5 -22 17 -34 25 -12
8 -34 25 -48 38 -15 12 -46 35 -69 51 -23 16 -40 31 -36 35 3 3 0 6 -8 6 -8 0
-27 11 -42 25 -15 14 -27 23 -27 21 0 -6 -28 16 -55 42 -8 6 -16 12 -20 12 -4
0 -13 6 -20 13 -33 29 -45 37 -54 37 -5 0 -11 3 -13 8 -5 11 -104 82 -116 82
-5 0 -13 7 -16 16 -3 8 -10 13 -15 10 -5 -4 -11 -2 -13 2 -4 11 -221 157 -227
153 -2 -1 -7 1 -10 6 -3 5 -24 20 -46 33 -22 13 -42 26 -45 30 -3 3 -22 14
-42 25 -21 11 -38 23 -38 27 0 5 -5 8 -10 8 -6 0 -36 16 -66 35 -30 19 -56 35
-58 35 -5 0 -170 99 -182 109 -7 5 -15 7 -18 4 -3 -4 -6 -1 -6 6 0 7 -4 9 -10
6 -5 -3 -10 -2 -10 2 0 5 -33 26 -72 47 -40 21 -113 60 -163 87 -49 27 -121
65 -160 84 -38 19 -77 39 -85 45 -14 9 -178 87 -345 165 -93 43 -365 165 -370
165 -1 0 -20 8 -41 17 -22 9 -41 17 -44 18 -3 1 -18 7 -33 13 -16 7 -52 22
-80 33 -29 12 -68 28 -87 37 -19 8 -41 15 -47 15 -7 0 -13 3 -13 7 0 4 -6 7
-12 7 -7 1 -38 11 -68 23 -30 12 -89 34 -130 50 -41 15 -87 33 -101 38 -15 6
-30 8 -33 5 -3 -4 -6 0 -6 7 0 7 -3 11 -6 7 -4 -3 -23 1 -43 9 -20 9 -40 17
-46 18 -5 2 -17 6 -25 9 -8 3 -33 11 -55 18 -22 6 -44 15 -50 19 -5 4 -18 6
-27 5 -10 -2 -18 0 -18 4 0 3 -30 15 -67 25 -38 11 -73 23 -78 27 -6 4 -22 10
-35 12 -14 2 -32 6 -40 9 -8 3 -35 12 -60 19 -57 16 -52 15 -70 21 -8 3 -37
12 -65 19 -27 6 -56 16 -62 22 -7 5 -13 7 -13 4 0 -3 -15 -1 -32 4 -91 28
-185 52 -205 52 -12 1 -20 4 -17 8 2 4 -18 10 -46 14 -27 4 -50 10 -50 13 0 4
-10 8 -23 9 -23 2 -62 10 -62 13 0 1 -11 4 -25 6 -14 2 -58 13 -98 23 -69 17
-73 17 -82 1z"/>
<path d="M2277 6864 c-3 -3 -41 -7 -84 -9 -43 -2 -105 -6 -138 -9 -33 -3 -94
-8 -135 -11 -41 -4 -82 -8 -90 -10 -8 -2 -44 -7 -80 -11 -63 -6 -84 -9 -152
-19 -18 -2 -53 -7 -78 -9 -25 -3 -46 -6 -47 -7 -4 -2 -14 -4 -66 -13 -27 -4
-59 -10 -70 -12 -12 -3 -37 -6 -55 -8 -48 -5 -56 -17 -38 -60 8 -20 13 -36 11
-36 -2 0 3 -17 11 -37 9 -20 17 -44 19 -52 2 -9 13 -41 25 -71 12 -30 23 -59
24 -65 1 -5 10 -27 19 -49 9 -21 17 -44 17 -52 0 -7 5 -16 10 -19 6 -3 10 -14
10 -23 0 -9 6 -28 13 -42 7 -14 21 -47 31 -75 26 -69 33 -76 70 -69 58 10 91
15 116 18 14 2 45 6 70 10 95 15 208 28 268 30 17 0 32 3 32 7 0 3 24 6 53 7
28 0 93 4 142 9 113 9 712 8 820 -2 44 -4 97 -8 117 -9 21 0 38 -3 38 -6 0 -3
15 -6 33 -6 17 0 52 -4 77 -7 25 -4 68 -10 95 -13 28 -4 52 -9 55 -13 3 -3 16
-7 30 -7 26 -2 85 -11 85 -14 0 -1 14 -4 30 -6 24 -4 127 -29 200 -48 6 -2 24
-6 40 -10 17 -4 37 -10 45 -13 8 -3 20 -7 25 -8 6 -2 48 -15 95 -31 47 -15 88
-27 93 -26 4 1 7 -2 7 -8 0 -5 7 -10 16 -10 9 0 32 -7 52 -16 21 -9 57 -25 82
-36 25 -10 71 -32 102 -49 32 -16 65 -29 73 -29 8 0 15 -3 15 -8 0 -4 15 -14
33 -21 17 -8 75 -41 127 -73 52 -33 104 -65 115 -71 11 -7 22 -14 25 -17 3 -3
35 -27 72 -53 36 -26 73 -53 80 -59 7 -7 38 -33 68 -57 110 -89 267 -246 360
-361 25 -30 47 -57 50 -60 3 -3 17 -21 30 -40 13 -19 27 -37 30 -40 4 -3 39
-54 78 -115 40 -60 76 -115 80 -121 46 -66 232 -432 232 -457 0 -7 4 -17 9
-23 8 -8 82 -194 88 -219 2 -12 41 -121 53 -150 4 -11 13 -40 20 -65 7 -25 15
-52 18 -60 3 -8 7 -24 9 -35 6 -28 9 -38 16 -55 7 -16 36 -130 44 -170 3 -14
6 -29 7 -35 2 -5 6 -23 10 -40 4 -16 12 -48 17 -70 9 -39 17 -83 24 -135 2
-14 4 -25 5 -25 3 0 15 -70 25 -140 3 -16 7 -41 10 -55 4 -14 8 -42 11 -62 6
-52 13 -107 19 -143 2 -16 7 -59 11 -95 3 -36 8 -78 10 -95 5 -34 12 -129 18
-221 2 -34 7 -67 10 -73 4 -6 1 -11 -6 -11 -8 0 -9 -3 -3 -8 6 -4 11 -25 12
-47 1 -22 3 -99 6 -172 3 -72 8 -136 11 -142 4 -5 2 -12 -4 -16 -6 -4 -8 -11
-4 -16 5 -9 9 -492 4 -514 -8 -35 2 -52 43 -67 23 -9 106 -41 183 -72 113 -43
428 -156 439 -156 10 0 13 861 3 1075 -3 72 -7 130 -8 130 0 0 -3 36 -5 80 -4
88 -13 186 -30 340 -13 111 -19 182 -18 198 0 9 -3 17 -6 17 -4 0 -7 10 -7 23
-1 27 -12 113 -19 147 -2 13 -6 39 -7 57 -1 18 -5 33 -8 33 -4 0 -7 12 -8 28
-2 42 -10 91 -26 167 -9 39 -18 83 -21 99 -2 15 -7 35 -9 45 -3 9 -8 31 -11
50 -3 19 -8 38 -10 41 -3 4 -7 25 -11 46 -3 22 -11 48 -17 59 -6 11 -10 21 -9
23 1 1 2 3 1 5 0 1 -2 11 -4 22 -4 29 -39 151 -87 305 -8 25 -16 50 -18 55 -1
6 -4 15 -6 20 -5 16 -75 209 -81 225 -4 8 -7 17 -7 20 -1 3 -6 14 -12 25 -6
11 -16 39 -24 63 -7 23 -17 42 -22 42 -4 0 -8 7 -8 15 0 9 -11 38 -25 65 -14
28 -22 50 -19 50 4 0 1 8 -7 18 -8 9 -32 55 -54 102 -22 47 -42 87 -45 90 -5
4 -27 45 -79 144 -9 17 -19 35 -24 40 -4 6 -22 34 -39 61 -92 147 -235 347
-296 415 -12 14 -39 46 -60 72 -40 51 -279 289 -353 353 -66 56 -74 63 -169
135 -47 36 -86 68 -88 73 -2 4 -10 7 -18 7 -8 0 -14 4 -14 9 0 5 -8 11 -17 15
-17 5 -72 42 -100 66 -7 5 -15 10 -18 10 -4 0 -26 14 -50 30 -24 17 -48 30
-53 30 -6 0 -12 3 -14 8 -8 18 -404 212 -433 212 -8 0 -15 3 -17 8 -1 4 -34
18 -73 31 -38 14 -81 31 -94 37 -14 7 -28 11 -33 8 -4 -3 -8 -1 -8 3 0 5 -8 9
-18 10 -26 2 -46 7 -52 13 -4 5 -27 12 -145 46 -11 3 -29 7 -40 7 -11 1 -22 4
-25 7 -4 5 -68 22 -127 35 -13 3 -32 7 -43 10 -11 3 -30 7 -42 10 -13 2 -36 8
-53 11 -16 4 -37 8 -45 9 -8 1 -33 6 -55 10 -22 5 -51 9 -65 11 -14 1 -25 3
-25 4 0 2 -18 4 -40 6 -22 1 -42 3 -45 5 -9 4 -84 14 -175 23 -22 3 -40 5 -40
6 0 3 -157 12 -232 14 -40 0 -73 4 -73 7 0 9 -547 5 -556 -3 -4 -4 -12 -3 -19
2 -7 5 -14 7 -18 4z"/>
</g>
</svg>
